<svg xmlns="http://www.w3.org/2000/svg" version="1.1" xmlns:xlink="http://www.w3.org/1999/xlink" xmlns:svgjs="http://svgjs.dev/svgjs" width="1000" height="1000" viewBox="0 0 1000 1000"><rect width="1000" height="1000" fill="#000000"></rect><g transform="matrix(0.7,0,0,0.7,149.57575757575756,445.2601544615062)"><svg xmlns="http://www.w3.org/2000/svg" version="1.1" xmlns:xlink="http://www.w3.org/1999/xlink" xmlns:svgjs="http://svgjs.com/svgjs" viewBox="0 0 396 62" data-background-color="#1b1b1b" preserveAspectRatio="xMidYMid meet" height="156" width="1000"><defs></defs><g id="tight-bounds" transform="matrix(1,0,0,1,0.2400000000000091,0.0793994815623762)"><svg viewBox="0 0 395.52 61.84120103687524" height="61.84120103687524" width="395.52"><g><svg viewBox="0 0 484.1498817462857 75.69885257142857" height="61.84120103687524" width="395.52"><g transform="matrix(1,0,0,1,0,10.461997714285719)"><svg viewBox="0 0 395.52 54.77485714285714" height="54.77485714285714" width="395.52"><g><svg viewBox="0 0 395.52 54.77485714285714" height="54.77485714285714" width="395.52"><g><svg viewBox="0 0 395.52 54.77485714285714" height="54.77485714285714" width="395.52"><g transform="matrix(1,0,0,1,0,0)"><svg width="395.52" viewBox="0.98 -38.09 352.02 48.760000000000005" height="54.77485714285714" data-palette-color="#fbfbfb"><path d="M28.42 0L0.98 0 0.98-5 4.66-5.79 4.66-29.74 0.98-30.52 0.98-35.55 4.66-35.55 13.23-35.55 17.72-35.55 17.72-30.52 13.23-29.74 13.23-6.57 21.68-6.57 21.88-11.52 28.42-11.52 28.42 0ZM43.26 0.51L43.26 0.51Q39.38 0.51 36.48-1.16 33.59-2.83 31.99-5.74 30.39-8.64 30.39-12.3L30.39-12.3 30.39-13.21Q30.39-17.24 31.81-20.34 33.23-23.44 35.96-25.18 38.69-26.93 42.67-26.9L42.67-26.9Q46.26-26.9 48.74-25.52 51.22-24.15 52.51-21.47 53.81-18.8 53.81-14.89L53.81-14.89 53.81-10.47 39.28-10.47 39.26-10.3Q39.45-9.06 40.1-8.09 40.74-7.13 41.89-6.57 43.04-6.01 44.72-6.01L44.72-6.01Q46.38-6.01 47.98-6.38 49.58-6.76 51.36-7.59L51.36-7.59 53.32-2.42Q51.54-1.15 48.97-0.32 46.41 0.51 43.26 0.51ZM39.18-15.89L39.28-15.77 45.99-15.77 45.99-16.41Q45.99-17.82 45.71-18.77 45.43-19.73 44.75-20.21 44.06-20.7 42.87-20.7L42.87-20.7Q41.57-20.7 40.81-20.08 40.04-19.46 39.68-18.37 39.33-17.29 39.18-15.89L39.18-15.89ZM65.64 0.51L65.64 0.51Q61.81 0.51 59.39-1.66 56.98-3.83 56.98-7.45L56.98-7.45Q56.98-9.91 58.31-11.82 59.64-13.72 62.31-14.81 64.99-15.89 69.01-15.89L69.01-15.89 71.77-15.89 71.77-17.46Q71.77-19.04 70.87-20.15 69.97-21.26 68.01-21.26L68.01-21.26Q67.18-21.26 66.46-21.06 65.74-20.85 65.16-20.46L65.16-20.46 64.57-17.09 58.54-17.09 58.42-24.44Q60.66-25.44 63.12-26.17 65.57-26.9 68.6-26.9L68.6-26.9Q73.99-26.9 77.17-24.43 80.34-21.95 80.34-17.36L80.34-17.36 80.34-7.62Q80.34-7.06 80.35-6.52 80.37-5.98 80.46-5.49L80.46-5.49 83.32-5 83.32 0 73.31 0Q72.99-0.44 72.63-1.17 72.26-1.9 72.11-2.64L72.11-2.64Q70.92-1.15 69.43-0.32 67.94 0.51 65.64 0.51ZM68.28-5.54L68.28-5.54Q69.21-5.54 70.15-5.92 71.09-6.3 71.77-7.06L71.77-7.06 71.77-10.86 69.11-10.86Q67.38-10.86 66.44-10.11 65.5-9.35 65.5-8.11L65.5-8.11Q65.5-6.91 66.28-6.23 67.06-5.54 68.28-5.54ZM100.72 0L86 0 86-5 89.08-5.79 89.08-20.61 85.42-21.39 85.42-26.42 97.16-26.42 97.36-23.19 97.4-22.53Q98.28-24.78 99.59-25.84 100.9-26.9 102.85-26.9L102.85-26.9Q103.39-26.9 104.12-26.82 104.85-26.73 105.61-26.51L105.61-26.51 104.75-18.65 101.09-18.82Q99.82-18.87 99.1-18.54 98.38-18.21 97.65-17.46L97.65-17.46 97.65-5.79 100.72-5 100.72 0ZM120.91 0L107.07 0 107.07-5 110.15-5.79 110.15-20.61 106.48-21.39 106.48-26.42 118.25-26.42 118.54-22.73Q119.86-24.71 121.78-25.81 123.7-26.9 126.14-26.9L126.14-26.9Q129.85-26.9 132-24.39 134.15-21.88 134.15-16.41L134.15-16.41 134.15-5.79 137.22-5 137.22 0 123.06 0 123.06-5 125.55-5.79 125.55-16.43Q125.55-18.55 124.7-19.45 123.84-20.34 122.26-20.34L122.26-20.34Q121.06-20.34 120.2-19.91 119.35-19.48 118.72-18.63L118.72-18.63 118.72-5.79 120.91-5 120.91 0ZM153.38 0L138.63 0 138.63-5 141.74-5.79 141.74-20.61 138.05-21.39 138.05-26.42 150.3-26.42 150.3-5.79 153.38-5 153.38 0ZM150.3-31.42L141.49-31.42 141.49-38.09 150.3-38.09 150.3-31.42ZM168.56 0L154.72 0 154.72-5 157.8-5.79 157.8-20.61 154.14-21.39 154.14-26.42 165.9-26.42 166.2-22.73Q167.51-24.71 169.43-25.81 171.35-26.9 173.79-26.9L173.79-26.9Q177.5-26.9 179.65-24.39 181.8-21.88 181.8-16.41L181.8-16.41 181.8-5.79 184.87-5 184.87 0 170.71 0 170.71-5 173.2-5.79 173.2-16.43Q173.2-18.55 172.35-19.45 171.49-20.34 169.91-20.34L169.91-20.34Q168.71-20.34 167.86-19.91 167-19.48 166.37-18.63L166.37-18.63 166.37-5.79 168.56-5 168.56 0ZM197.91 10.67L197.91 10.67Q195.83 10.67 193.17 10.16 190.51 9.64 188.48 8.67L188.48 8.67 189.85 2.76Q191.78 3.52 193.74 3.92 195.71 4.32 197.32 4.32L197.32 4.32Q199.96 4.32 201.19 2.87 202.42 1.42 202.42-1.1L202.42-1.1 202.42-2.34Q201.33-0.98 199.87-0.23 198.42 0.51 196.54 0.51L196.54 0.51Q193.32 0.51 191.02-1.12 188.73-2.76 187.52-5.73 186.31-8.69 186.31-12.65L186.31-12.65 186.31-13.16Q186.31-17.29 187.51-20.37 188.7-23.46 190.94-25.18 193.17-26.9 196.27-26.9L196.27-26.9Q198.57-26.9 200.18-25.9 201.79-24.9 202.94-23.1L202.94-23.1 203.47-26.42 211.02-26.42 211.02-1.05Q211.02 2.47 209.42 5.1 207.82 7.74 204.88 9.2 201.94 10.67 197.91 10.67ZM199.05-6.05L199.05-6.05Q200.13-6.05 201.01-6.41 201.89-6.76 202.42-7.5L202.42-7.5 202.42-18.55Q201.89-19.43 201.01-19.89 200.13-20.34 199.05-20.34L199.05-20.34Q197.52-20.34 196.6-19.45 195.69-18.55 195.28-16.94 194.88-15.33 194.88-13.16L194.88-13.16 194.88-12.65Q194.88-9.5 195.78-7.78 196.69-6.05 199.05-6.05ZM214.02-21.36L210.02-20.51 206.16-26.42 214.02-26.42 214.02-21.36ZM252.45 1.64L248.44 7.4 237.5 0.32Q236.72 0.39 235.97 0.45 235.21 0.51 234.5 0.51L234.5 0.51Q230.79 0.51 227.69-0.84 224.59-2.2 222.33-4.63 220.07-7.06 218.84-10.34 217.61-13.62 217.61-17.5L217.61-17.5 217.61-18.07Q217.61-21.9 218.84-25.18 220.07-28.47 222.33-30.91 224.59-33.35 227.68-34.7 230.77-36.06 234.45-36.06L234.45-36.06Q238.07-36.06 241.17-34.7 244.27-33.35 246.6-30.91 248.93-28.47 250.22-25.18 251.52-21.9 251.52-18.07L251.52-18.07 251.52-17.5Q251.52-12.99 249.52-9.17 247.51-5.35 244.61-2.93L244.61-2.93 252.45 1.64ZM234.5-5.98L234.5-5.98Q237.26-5.98 239.15-7.42 241.04-8.86 242.02-11.45 243-14.04 243-17.5L243-17.5 243-18.12Q243-21.51 241.98-24.08 240.97-26.66 239.07-28.1 237.16-29.54 234.45-29.54L234.45-29.54Q231.57-29.54 229.74-28.13 227.91-26.71 227.04-24.15 226.18-21.58 226.18-18.12L226.18-18.12 226.18-17.5Q226.18-14.04 227.08-11.44 227.98-8.84 229.84-7.41 231.69-5.98 234.5-5.98ZM264.8 0.51L264.8 0.51Q260.7 0.51 258.35-2.08 256.01-4.66 256.01-10.08L256.01-10.08 256.01-20.61 253.18-21.39 253.18-26.42 256.01-26.42 264.58-26.42 264.58-10.03Q264.58-8.08 265.39-7.07 266.21-6.05 267.85-6.05L267.85-6.05Q268.8-6.05 269.74-6.41 270.68-6.76 271.41-7.47L271.41-7.47 271.41-20.61 268.53-21.39 268.53-26.42 271.41-26.42 279.98-26.42 279.98-5.79 283.28-5 283.28 0 272.54 0 271.97-3Q270.71-1.29 268.89-0.39 267.07 0.51 264.8 0.51ZM298.46 0.51L298.46 0.51Q294.58 0.51 291.69-1.16 288.79-2.83 287.19-5.74 285.6-8.64 285.6-12.3L285.6-12.3 285.6-13.21Q285.6-17.24 287.01-20.34 288.43-23.44 291.16-25.18 293.9-26.93 297.88-26.9L297.88-26.9Q301.46-26.9 303.94-25.52 306.42-24.15 307.71-21.47 309.01-18.8 309.01-14.89L309.01-14.89 309.01-10.47 294.48-10.47 294.46-10.3Q294.65-9.06 295.3-8.09 295.95-7.13 297.09-6.57 298.24-6.01 299.93-6.01L299.93-6.01Q301.59-6.01 303.19-6.38 304.78-6.76 306.57-7.59L306.57-7.59 308.52-2.42Q306.74-1.15 304.17-0.32 301.61 0.51 298.46 0.51ZM294.38-15.89L294.48-15.77 301.2-15.77 301.2-16.41Q301.2-17.82 300.91-18.77 300.63-19.73 299.95-20.21 299.27-20.7 298.07-20.7L298.07-20.7Q296.78-20.7 296.01-20.08 295.24-19.46 294.88-18.37 294.53-17.29 294.38-15.89L294.38-15.89ZM323.68 0.51L323.68 0.51Q320.55 0.51 317.86-0.06 315.16-0.63 312.99-1.64L312.99-1.64 312.89-9.86 318.67-9.86 319.65-6.03Q320.16-5.71 320.97-5.48 321.77-5.25 322.9-5.25L322.9-5.25Q324.97-5.25 325.75-5.81 326.54-6.37 326.54-7.23L326.54-7.23Q326.54-8.06 325.64-8.75 324.75-9.45 321.85-9.99L321.85-9.99Q317.21-10.89 315.01-13.07 312.81-15.26 312.81-18.53L312.81-18.53Q312.81-20.75 313.84-22.63 314.87-24.51 317.2-25.67 319.53-26.83 323.43-26.83L323.43-26.83Q326.41-26.83 329.11-26.32 331.81-25.81 333.54-25.02L333.54-25.02 333.52-17.07 327.76-17.07 327.02-20.48Q326.46-20.87 325.75-21.07 325.05-21.26 324.17-21.26L324.17-21.26Q322.53-21.26 321.77-20.68 321.02-20.09 321.02-19.17L321.02-19.17Q321.02-18.63 321.35-18.09 321.68-17.55 322.65-17.07 323.63-16.58 325.51-16.16L325.51-16.16Q330.03-15.16 332.31-13.38 334.59-11.6 334.59-7.96L334.59-7.96Q334.59-4.05 331.8-1.77 329 0.51 323.68 0.51ZM348.41 0.56L348.41 0.56Q344.26 0.56 342.1-1.65 339.94-3.86 339.94-8.64L339.94-8.64 339.94-20.51 336.64-20.51 336.64-26.42 339.94-26.42 339.94-32.93 348.46-32.93 348.46-26.42 352.78-26.42 352.78-20.51 348.46-20.51 348.46-8.67Q348.46-7.37 349.04-6.86 349.63-6.35 350.65-6.35L350.65-6.35Q351.09-6.35 351.53-6.4 351.97-6.45 352.41-6.52L352.41-6.52 353-0.12Q351.87 0.2 350.74 0.38 349.6 0.56 348.41 0.56Z" opacity="1" transform="matrix(1,0,0,1,0,0)" fill="#ffffff" class="undefined-text-0" data-fill-palette-color="primary" id="text-0"></path></svg></g></svg></g></svg></g></svg></g><g transform="matrix(1,0,0,1,408.4510291748571,0)"><svg viewBox="0 0 75.69885257142857 75.69885257142857" height="75.69885257142857" width="75.69885257142857"><g data-palette-color="#09408f"><rect width="20.691019702857144" height="75.69885257142857" fill="#ffffff" stroke="transparent" data-fill-palette-color="accent" x="0" fill-opacity="1"></rect><rect width="20.691019702857144" height="75.69885257142857" fill="#ffffff" stroke="transparent" data-fill-palette-color="accent" x="25.232950857142857" fill-opacity="0.75"></rect><rect width="20.691019702857144" height="75.69885257142857" fill="#ffffff" stroke="transparent" data-fill-palette-color="accent" x="50.465901714285714" fill-opacity="0.5"></rect></g></svg></g></svg></g></svg><rect width="395.52" height="61.84120103687524" fill="none" stroke="none" visibility="hidden"></rect></g></svg></g></svg>